# xmcd
#
# Track frame offsets: 
#        182
#        12540
#        25687
#        35677
#        44767
#        56160
#        67035
#        79075
#        89312
#        101850
#        111665
#        121627
#        132132
#        146465
#        156632
#        167525
#
# Disc length: 2507 seconds
#
# Revision: 3
# Processed by: cddbd v1.4PL0 Copyright (c) Steve Scherf et al.
# Submitted via: ExactAudioCopy v0.90a11
#
DISCID=e509c910
DTITLE=Dean Martin - The Wonnderful Music Of 
DYEAR=1900
DGENRE=
TTITLE0=Everybody Loves Somebody
TTITLE1=The Door Is Still Open To My Heart
TTITLE2=You're Nobody Until Somebody Loves You
TTITLE3=You'll Always Be The One I Love
TTITLE4=Send Me The Pillow You Dream On
TTITLE5=I'm The Who Loves You
TTITLE6=Houston
TTITLE7=I Will
TTITLE8=Little Ole Wine Drinker Me
TTITLE9=The First Thing Every Morning
TTITLE10=Everybody But Me
TTITLE11=Old Yellow Line
TTITLE12=Gree Green Grass Of Home
TTITLE13=You're The Reason I'm In Love
TTITLE14=Crying Time
TTITLE15=Little Green Apples
EXTD=
EXTT0=
EXTT1=
EXTT2=
EXTT3=
EXTT4=
EXTT5=
EXTT6=
EXTT7=
EXTT8=
EXTT9=
EXTT10=
EXTT11=
EXTT12=
EXTT13=
EXTT14=
EXTT15=
PLAYORDER=
